HIERARCHY
ROOT Root
{
  OFFSET 0.0 0.0 0.0
  CHANNELS 6 Xposition Yposition Zposition Zrotation Yrotation Xrotation
  JOINT Hips
  {
    OFFSET 0.0 100.0 0.0
    CHANNELS 6 Xposition Yposition Zposition Zrotation Yrotation Xrotation
    JOINT Spine1
    {
      OFFSET 5.003913 -0.037094 -0.013727
      CHANNELS 3 Zrotation Yrotation Xrotation
      JOINT Spine2
      {
        OFFSET 7.125363 -1e-06 0.0
        CHANNELS 3 Zrotation Yrotation Xrotation
        JOINT Chest
        {
          OFFSET 7.594027 1e-06 0.0
          CHANNELS 3 Zrotation Yrotation Xrotation
          JOINT Neck1
          {
            OFFSET 26.313086 -0.460272 -0.181672
            CHANNELS 3 Zrotation Yrotation Xrotation
            JOINT Neck2
            {
              OFFSET 8.045911 0.0 0.0
              CHANNELS 3 Zrotation Yrotation Xrotation
              JOINT Head
              {
                OFFSET 6.432774 0.0 0.0
                CHANNELS 3 Zrotation Yrotation Xrotation
                JOINT HeadEnd
                {
                  OFFSET 16.169773 0.06451 0.00362
                  CHANNELS 3 Zrotation Yrotation Xrotation
                }
                JOINT Jaw
                {
                  OFFSET 0.108741 3.12938 0.002639
                  CHANNELS 3 Zrotation Yrotation Xrotation
                }
                JOINT LeftEye
                {
                  OFFSET 4.45173 8.166359 3.206392
                  CHANNELS 3 Zrotation Yrotation Xrotation
                }
                JOINT RightEye
                {
                  OFFSET 4.436895 8.135758 -3.222429
                  CHANNELS 3 Zrotation Yrotation Xrotation
                }
              }
            }
          }
          JOINT LeftShoulder
          {
            OFFSET 23.218927 5.195579 1.621656
            CHANNELS 3 Zrotation Yrotation Xrotation
            JOINT LeftArm
            {
              OFFSET 15.902118 2e-06 -2e-06
              CHANNELS 3 Zrotation Yrotation Xrotation
              JOINT LeftForeArm
              {
                OFFSET 28.739307 0.0 -1e-06
                CHANNELS 3 Zrotation Yrotation Xrotation
                JOINT LeftHand
                {
                  OFFSET 27.093981 -4e-06 0.0
                  CHANNELS 3 Zrotation Yrotation Xrotation
                  JOINT LeftHandThumb1
                  {
                    OFFSET 2.276781 3.380274 0.83384
                    CHANNELS 3 Zrotation Yrotation Xrotation
                    JOINT LeftHandThumb2
                    {
                      OFFSET 4.705309 -1e-06 -1e-06
                      CHANNELS 3 Zrotation Yrotation Xrotation
                      JOINT LeftHandThumb3
                      {
                        OFFSET 2.798515 0.0 3e-06
                        CHANNELS 3 Zrotation Yrotation Xrotation
                        JOINT LeftHandThumbEnd
                        {
                          OFFSET 3.180793 4e-06 -4e-06
                          CHANNELS 3 Zrotation Yrotation Xrotation
                        }
                      }
                    }
                  }
                  JOINT LeftHandIndex1
                  {
                    OFFSET 3.247786 2.352677 0.137192
                    CHANNELS 3 Zrotation Yrotation Xrotation
                    JOINT LeftHandIndex2
                    {
                      OFFSET 6.367095 1e-06 0.0
                      CHANNELS 3 Zrotation Yrotation Xrotation
                      JOINT LeftHandIndex3
                      {
                        OFFSET 3.662364 0.0 0.0
                        CHANNELS 3 Zrotation Yrotation Xrotation
                        JOINT LeftHandIndex4
                        {
                          OFFSET 2.329242 4e-06 -4e-06
                          CHANNELS 3 Zrotation Yrotation Xrotation
                          JOINT LeftHandIndexEnd
                          {
                            OFFSET 2.767823 1e-06 0.0
                            CHANNELS 3 Zrotation Yrotation Xrotation
                          }
                        }
                      }
                    }
                  }
                  JOINT LeftHandMiddle1
                  {
                    OFFSET 3.163612 0.945023 -0.406112
                    CHANNELS 3 Zrotation Yrotation Xrotation
                    JOINT LeftHandMiddle2
                    {
                      OFFSET 6.276789 3e-06 0.0
                      CHANNELS 3 Zrotation Yrotation Xrotation
                      JOINT LeftHandMiddle3
                      {
                        OFFSET 4.35652 -1e-06 4e-06
                        CHANNELS 3 Zrotation Yrotation Xrotation
                        JOINT LeftHandMiddle4
                        {
                          OFFSET 2.996877 0.0 8e-06
                          CHANNELS 3 Zrotation Yrotation Xrotation
                          JOINT LeftHandMiddleEnd
                          {
                            OFFSET 2.323256 3e-06 -4e-06
                            CHANNELS 3 Zrotation Yrotation Xrotation
                          }
                        }
                      }
                    }
                  }
                  JOINT LeftHandRing1
                  {
                    OFFSET 2.882606 -0.309162 0.107445
                    CHANNELS 3 Zrotation Yrotation Xrotation
                    JOINT LeftHandRing2
                    {
                      OFFSET 6.033198 0.0 4e-06
                      CHANNELS 3 Zrotation Yrotation Xrotation
                      JOINT LeftHandRing3
                      {
                        OFFSET 4.350578 3e-06 0.0
                        CHANNELS 3 Zrotation Yrotation Xrotation
                        JOINT LeftHandRing4
                        {
                          OFFSET 2.651321 2e-06 -7e-06
                          CHANNELS 3 Zrotation Yrotation Xrotation
                          JOINT LeftHandRingEnd
                          {
                            OFFSET 1.937663 1e-06 -4e-06
                            CHANNELS 3 Zrotation Yrotation Xrotation
                          }
                        }
                      }
                    }
                  }
                  JOINT LeftHandPinky1
                  {
                    OFFSET 2.865315 -1.525436 0.575687
                    CHANNELS 3 Zrotation Yrotation Xrotation
                    JOINT LeftHandPinky2
                    {
                      OFFSET 5.54936 1e-06 -8e-06
                      CHANNELS 3 Zrotation Yrotation Xrotation
                      JOINT LeftHandPinky3
                      {
                        OFFSET 3.070974 0.0 -4e-06
                        CHANNELS 3 Zrotation Yrotation Xrotation
                        JOINT LeftHandPinky4
                        {
                          OFFSET 1.549672 1e-06 0.0
                          CHANNELS 3 Zrotation Yrotation Xrotation
                          JOINT LeftHandPinkyEnd
                          {
                            OFFSET 1.952123 0.0 0.0
                            CHANNELS 3 Zrotation Yrotation Xrotation
                          }
                        }
                      }
                    }
                  }
                }
              }
            }
          }
          JOINT RightShoulder
          {
            OFFSET 23.161716 5.296122 -1.380114
            CHANNELS 3 Zrotation Yrotation Xrotation
            JOINT RightArm
            {
              OFFSET -16.027195 -2e-06 1.1e-05
              CHANNELS 3 Zrotation Yrotation Xrotation
              JOINT RightForeArm
              {
                OFFSET -28.736639 4e-06 2e-06
                CHANNELS 3 Zrotation Yrotation Xrotation
                JOINT RightHand
                {
                  OFFSET -27.133619 6e-06 0.0
                  CHANNELS 3 Zrotation Yrotation Xrotation
                  JOINT RightHandThumb1
                  {
                    OFFSET -2.274328 -3.351035 -0.83067
                    CHANNELS 3 Zrotation Yrotation Xrotation
                    JOINT RightHandThumb2
                    {
                      OFFSET -4.703594 -3e-06 2e-06
                      CHANNELS 3 Zrotation Yrotation Xrotation
                      JOINT RightHandThumb3
                      {
                        OFFSET -2.794935 -4e-06 -3e-06
                        CHANNELS 3 Zrotation Yrotation Xrotation
                        JOINT RightHandThumbEnd
                        {
                          OFFSET -3.183852 4e-06 1e-06
                          CHANNELS 3 Zrotation Yrotation Xrotation
                        }
                      }
                    }
                  }
                  JOINT RightHandIndex1
                  {
                    OFFSET -3.253496 -2.33755 -0.127667
                    CHANNELS 3 Zrotation Yrotation Xrotation
                    JOINT RightHandIndex2
                    {
                      OFFSET -6.344434 0.0 0.0
                      CHANNELS 3 Zrotation Yrotation Xrotation
                      JOINT RightHandIndex3
                      {
                        OFFSET -3.654871 0.0 -8e-06
                        CHANNELS 3 Zrotation Yrotation Xrotation
                        JOINT RightHandIndex4
                        {
                          OFFSET -2.327586 -1e-06 0.0
                          CHANNELS 3 Zrotation Yrotation Xrotation
                          JOINT RightHandIndexEnd
                          {
                            OFFSET -2.770001 3e-06 8e-06
                            CHANNELS 3 Zrotation Yrotation Xrotation
                          }
                        }
                      }
                    }
                  }
                  JOINT RightHandMiddle1
                  {
                    OFFSET -3.168223 -0.944764 0.411762
                    CHANNELS 3 Zrotation Yrotation Xrotation
                    JOINT RightHandMiddle2
                    {
                      OFFSET -6.266691 -1e-06 -4e-06
                      CHANNELS 3 Zrotation Yrotation Xrotation
                      JOINT RightHandMiddle3
                      {
                        OFFSET -4.348901 0.0 0.0
                        CHANNELS 3 Zrotation Yrotation Xrotation
                        JOINT RightHandMiddle4
                        {
                          OFFSET -3.00024 2e-06 -4e-06
                          CHANNELS 3 Zrotation Yrotation Xrotation
                          JOINT RightHandMiddleEnd
                          {
                            OFFSET -2.321477 -4e-06 -4e-06
                            CHANNELS 3 Zrotation Yrotation Xrotation
                          }
                        }
                      }
                    }
                  }
                  JOINT RightHandRing1
                  {
                    OFFSET -2.885654 0.293261 -0.119232
                    CHANNELS 3 Zrotation Yrotation Xrotation
                    JOINT RightHandRing2
                    {
                      OFFSET -6.032835 -1e-06 -4e-06
                      CHANNELS 3 Zrotation Yrotation Xrotation
                      JOINT RightHandRing3
                      {
                        OFFSET -4.33881 0.0 -4e-06
                        CHANNELS 3 Zrotation Yrotation Xrotation
                        JOINT RightHandRing4
                        {
                          OFFSET -2.654903 -4e-06 -4e-06
                          CHANNELS 3 Zrotation Yrotation Xrotation
                          JOINT RightHandRingEnd
                          {
                            OFFSET -1.935122 0.0 4e-06
                            CHANNELS 3 Zrotation Yrotation Xrotation
                          }
                        }
                      }
                    }
                  }
                  JOINT RightHandPinky1
                  {
                    OFFSET -2.866241 1.503904 -0.60527
                    CHANNELS 3 Zrotation Yrotation Xrotation
                    JOINT RightHandPinky2
                    {
                      OFFSET -5.553177 -2e-06 0.0
                      CHANNELS 3 Zrotation Yrotation Xrotation
                      JOINT RightHandPinky3
                      {
                        OFFSET -3.062664 -1e-06 -4e-06
                        CHANNELS 3 Zrotation Yrotation Xrotation
                        JOINT RightHandPinky4
                        {
                          OFFSET -1.546529 2e-06 4e-06
                          CHANNELS 3 Zrotation Yrotation Xrotation
                          JOINT RightHandPinkyEnd
                          {
                            OFFSET -1.952341 0.0 -4e-06
                            CHANNELS 3 Zrotation Yrotation Xrotation
                          }
                        }
                      }
                    }
                  }
                }
              }
            }
          }
        }
      }
    }
    JOINT LeftLeg
    {
      OFFSET -8.443107 2.567604 10.043214
      CHANNELS 3 Zrotation Yrotation Xrotation
      JOINT LeftShin
      {
        OFFSET 43.229198 1e-06 -1e-06
        CHANNELS 3 Zrotation Yrotation Xrotation
        JOINT LeftFoot
        {
          OFFSET 42.298611 1e-06 1e-06
          CHANNELS 3 Zrotation Yrotation Xrotation
          JOINT LeftToeBase
          {
            OFFSET 14.165858 1e-06 0.0
            CHANNELS 3 Zrotation Yrotation Xrotation
            JOINT LeftToeEnd
            {
              OFFSET 6.7141 -0.234461 0.0
              CHANNELS 3 Zrotation Yrotation Xrotation
            }
          }
        }
      }
    }
    JOINT RightLeg
    {
      OFFSET -8.303923 2.592729 -10.047278
      CHANNELS 3 Zrotation Yrotation Xrotation
      JOINT RightShin
      {
        OFFSET -43.369682 0.0 1e-06
        CHANNELS 3 Zrotation Yrotation Xrotation
        JOINT RightFoot
        {
          OFFSET -42.260784 4e-06 2e-06
          CHANNELS 3 Zrotation Yrotation Xrotation
          JOINT RightToeBase
          {
            OFFSET -14.222245 -2e-06 -1e-06
            CHANNELS 3 Zrotation Yrotation Xrotation
            JOINT RightToeEnd
            {
              OFFSET -6.660062 0.232574 -2e-06
              CHANNELS 3 Zrotation Yrotation Xrotation
            }
          }
        }
      }
    }
  }
}
MOTION
Frames: 5
Frame Time: 0.03333333333333333
0.0 0.0 0.0 0.0 -0.0 0.0 -19.482309 82.055687 123.269356 97.885696 0.835548 86.134308 4.162631 2.241029 3.634056 -8.929798 2.115346 9.258842 16.351952 -6.746 9.142696 25.148956 -13.902864 1.805133 -2.9474 -0.242464 -5.90923 -29.720383 4.340054 -14.990853 6e-06 -0.0 -1e-06 -0.147469 0.059793 0.325765 0.007722 0.042206 0.393404 -0.0675 0.056516 0.261991 -102.596321 -45.266048 119.667061 -30.765255 -26.29406 -11.016712 95.598236 5.196042 -2.353368 -23.781017 56.111561 -54.60508 17.636629 -26.322744 52.411224 -19.466665 -14.3956 29.410402 -1e-06 -8.774823 -0.0 16.080753 -16.537998 5.78231 -0.609774 -1.795654 -3.889331 -4.807093 -11.046814 -2.93785 5e-06 -20.976025 -3e-06 -5.019969 -25.033566 -4.03188 6e-06 1e-06 0.0 -10.634535 -5.686975 -3.565588 10.573278 -17.922956 -3.113902 2e-06 -13.821214 0.0 -0.501773 -31.181522 -4.027019 -11.612643 -60.805397 8.148505 -13.982716 -7.150202 -2.875043 13.772735 -8.401495 -3.218241 0.347733 -34.211559 0.771658 -0.963028 -17.733372 2.621018 0.0 1e-06 -0.0 -17.346418 -20.095224 -4.201784 21.757566 -1.638376 3.866429 -0.0 -6.338827 -1e-06 -1.697588 -22.591753 -6.194006 0.0 -4e-06 -0.0 -161.7603 -54.555206 -6.815694 13.878224 -10.842173 -13.056109 110.229164 6.911794 0.476946 9.341269 -7.462055 -7.697281 22.182129 -20.375902 49.933331 -16.701817 -16.743538 28.476538 -4e-06 -12.690608 -2e-06 17.850906 -17.356775 1.656686 -0.10592 -1.513858 -4.275881 -5.039042 -5.612872 -2.953558 4e-06 -11.020527 -0.0 -6.111303 -15.895338 -3.840472 -1e-06 1e-06 1e-06 -10.283376 -5.68029 -4.341839 11.028298 -11.302407 -2.372632 -1.384271 -14.238586 -6.320122 -0.62544 -26.924198 -3.827602 -4.944971 -52.069378 -2.627948 -13.708529 -7.363479 -3.720942 18.141155 -14.052745 -3.242672 5e-06 -18.787275 -1e-06 -0.429712 -8.456045 2.555505 0.0 0.0 2e-06 -15.923543 -20.094486 -5.473586 30.419224 -7.190828 1.735929 4e-06 -8.162927 -0.0 -1.861905 -22.861473 -6.167942 -1e-06 -2e-06 -0.0 130.493759 3.640695 7.115979 26.877964 0.072071 1.417373 -45.018818 5.349984 -14.272349 -5.796354 1.627519 2.25785 -0.999998 0.0 0.0 11.897277 -22.952751 -18.297647 54.887016 -1.390936 1.240005 -104.793457 11.40616 -13.114091 -18.333981 0.765574 1.457742 -1.000002 0.0 -0.0 
0.0 0.0 0.0 0.0 -0.0 0.0 -18.734806 81.013313 126.738655 98.746422 1.055018 85.79863 4.031145 2.080651 3.887828 -8.946522 2.185263 9.419773 16.691605 -7.53268 9.313225 25.564554 -13.100544 2.117819 -2.918385 -0.444814 -5.998126 -30.718975 4.623446 -16.077568 6e-06 -0.0 0.0 -0.112438 0.077673 0.42375 0.054373 0.038992 0.495902 -0.002785 0.0913 0.35212 -102.75885 -43.783157 119.956863 -31.987013 -26.745201 -11.644516 100.065788 5.973607 -2.337337 -25.746347 58.016079 -57.608315 17.636625 -26.322729 52.411209 -19.466665 -14.395598 29.410398 0.0 -8.774824 -2e-06 16.260445 -16.021938 5.309442 -0.609774 -1.795655 -3.88933 -4.807092 -11.046813 -2.937852 4e-06 -20.976019 -2e-06 -5.019966 -25.03356 -4.031882 7e-06 0.0 -1e-06 -10.634535 -5.686974 -3.565589 10.573272 -17.922949 -3.113902 2e-06 -13.821211 -2e-06 -0.501774 -31.181505 -4.02702 -11.103642 -60.617439 7.794134 -13.982716 -7.150198 -2.875043 13.772733 -8.401493 -3.218245 0.347734 -34.211552 0.771651 -0.963027 -17.733368 2.621018 -0.0 -0.0 1e-06 -17.346416 -20.095217 -4.201786 21.757557 -1.638378 3.866426 2e-06 -6.338823 -2e-06 -1.697589 -22.591742 -6.194004 1e-06 -5e-06 -0.0 -162.461166 -53.365749 -4.8283 12.80785 -8.546384 -8.16949 110.226883 5.58156 2.484169 10.698901 -13.355349 -3.063241 22.182112 -20.375898 49.933323 -16.701817 -16.74353 28.476538 -2e-06 -12.690603 -1e-06 17.629208 -17.281227 1.848533 -0.10592 -1.513857 -4.275883 -5.039041 -5.612872 -2.953555 4e-06 -11.020521 -2e-06 -6.111298 -15.895332 -3.84047 1e-06 0.0 0.0 -10.283372 -5.68029 -4.341839 11.028296 -11.302402 -2.372633 -1.384267 -14.238583 -6.320121 -0.625438 -26.924191 -3.827601 -4.859601 -52.212936 -3.000969 -13.708527 -7.363479 -3.720939 18.141153 -14.052739 -3.242675 6e-06 -18.78727 -3e-06 -0.429712 -8.456045 2.555503 -0.0 -0.0 1e-06 -15.923538 -20.094484 -5.473584 30.41921 -7.190827 1.735921 3e-06 -8.162925 -2e-06 -1.861902 -22.861469 -6.167942 0.0 -3e-06 -1e-06 126.00766 4.003212 2.889639 38.393364 -0.09902 1.166953 -47.582397 7.224006 -11.443662 -5.036628 1.59081 2.17013 -0.999999 -1e-06 -0.0 13.810384 -25.795851 -17.480991 55.979256 -1.670077 1.445424 -99.179886 13.899003 -11.993111 -21.565794 0.784327 1.369264 -1.000002 -1e-06 -0.0 
0.0 0.0 0.0 0.0 -0.0 0.0 -18.409346 80.389343 129.71254 99.056007 0.951598 85.488258 3.866151 1.887361 3.958854 -9.00717 2.182705 9.673218 17.084188 -7.78736 9.504622 25.651237 -12.232051 2.256603 -2.876914 -0.608941 -6.072402 -31.526678 4.665815 -16.351105 6e-06 -0.0 0.0 -0.085614 0.078188 0.387751 0.082892 0.013098 0.4453 0.024381 0.118208 0.331669 -102.359505 -43.565926 119.581093 -32.608589 -27.564508 -10.62994 102.855789 5.638323 -1.926263 -24.673231 57.427773 -55.923496 17.636623 -26.322737 52.411201 -19.466663 -14.395597 29.410395 -0.0 -8.774822 -1e-06 16.612616 -16.214859 4.678054 -0.609779 -1.795654 -3.889328 -4.807088 -11.046813 -2.937851 3e-06 -20.976019 1e-06 -5.01997 -25.03356 -4.031882 6e-06 1e-06 2e-06 -10.634537 -5.686969 -3.565586 10.573277 -17.922955 -3.113903 3e-06 -13.821212 0.0 -0.501775 -31.181505 -4.027017 -10.940991 -59.975906 7.341063 -13.982718 -7.150198 -2.875041 13.772731 -8.401495 -3.218241 0.347732 -34.211555 0.771657 -0.963029 -17.733372 2.621016 1e-06 1e-06 -0.0 -17.346422 -20.095221 -4.201779 21.757561 -1.638376 3.866427 -1e-06 -6.338824 -0.0 -1.697589 -22.591751 -6.194007 -0.0 -4e-06 -3e-06 -163.114807 -52.867409 -3.565594 14.309436 -5.696188 -2.886042 107.675949 4.15748 4.397191 9.157424 -19.588003 4.629507 22.182119 -20.375898 49.933327 -16.701817 -16.74353 28.476536 -4e-06 -12.690604 -2e-06 17.485182 -17.102757 2.12349 -0.10592 -1.513856 -4.275882 -5.039039 -5.612872 -2.953558 4e-06 -11.020528 -2e-06 -6.111298 -15.895334 -3.840472 0.0 -0.0 1e-06 -10.283371 -5.680288 -4.34184 11.028296 -11.302409 -2.372633 -1.38427 -14.238585 -6.320121 -0.625438 -26.924196 -3.827603 -5.228684 -52.54356 -2.663811 -13.708526 -7.363478 -3.720939 18.141151 -14.052742 -3.242677 6e-06 -18.787273 -2e-06 -0.429711 -8.456047 2.555504 -0.0 -0.0 1e-06 -15.923536 -20.094482 -5.473588 30.41921 -7.190829 1.735924 3e-06 -8.162929 -1e-06 -1.861902 -22.861473 -6.167941 -1e-06 -2e-06 -0.0 122.841652 3.666493 -0.043652 47.237278 -0.201652 0.880353 -51.896008 7.580612 -8.742726 -4.926789 1.499843 2.136223 -0.999997 -0.0 -0.0 17.305182 -25.849525 -17.922894 53.536945 -1.908636 1.632784 -94.384033 14.853992 -9.782958 -22.851892 0.830898 1.355217 -1.0 0.0 -0.0 
0.0 0.0 0.0 0.0 -0.0 0.0 -18.492317 80.044022 132.036072 98.797043 0.216632 85.148949 3.65522 1.553904 3.95278 -9.153696 2.110003 9.878385 17.540274 -7.722418 9.43389 25.158449 -11.197398 2.509782 -2.894678 -0.675921 -6.020435 -32.689034 4.619145 -16.269028 6e-06 -0.0 -0.0 -0.091579 0.077698 0.36317 0.116078 -0.004756 0.410817 0.044898 0.137042 0.317281 -101.447411 -44.9007 118.387535 -32.534473 -27.827988 -9.121582 102.617355 4.520994 -1.135564 -21.864996 54.218212 -50.583191 17.636631 -26.322741 52.411201 -19.46666 -14.395598 29.410393 -1e-06 -8.774822 -1e-06 16.510288 -16.380854 4.33562 -0.609777 -1.795655 -3.889327 -4.807091 -11.04681 -2.937853 2e-06 -20.976019 1e-06 -5.01997 -25.033558 -4.031879 6e-06 -0.0 -0.0 -10.634533 -5.686973 -3.565585 10.573271 -17.922955 -3.1139 2e-06 -13.821211 1e-06 -0.501777 -31.181505 -4.027017 -10.682261 -59.014885 6.763299 -13.982715 -7.150197 -2.875042 13.772731 -8.401495 -3.218241 0.347728 -34.211555 0.771663 -0.963029 -17.73337 2.62102 1e-06 0.0 -0.0 -17.346418 -20.095219 -4.20178 21.757557 -1.638375 3.866427 -0.0 -6.338825 2e-06 -1.697592 -22.591751 -6.194004 -1e-06 -5e-06 -1e-06 -163.677505 -53.466335 -2.518883 16.3458 -2.196517 0.686252 106.669617 3.847749 5.033334 8.910275 -22.867882 7.133052 22.182121 -20.375896 49.933319 -16.701817 -16.74353 28.47653 -3e-06 -12.690603 -2e-06 17.578617 -17.213978 2.354465 -0.105919 -1.513856 -4.275881 -5.039042 -5.612873 -2.953556 4e-06 -11.020525 -2e-06 -6.1113 -15.895334 -3.840471 0.0 -0.0 0.0 -10.283373 -5.680286 -4.341836 11.028296 -11.302406 -2.372633 -1.384268 -14.238583 -6.32012 -0.625438 -26.924194 -3.827599 -5.505202 -52.994629 -2.171749 -13.708527 -7.363475 -3.720938 18.141151 -14.052739 -3.242674 6e-06 -18.78727 -1e-06 -0.429711 -8.456043 2.555504 0.0 -0.0 -1e-06 -15.923539 -20.094482 -5.473583 30.419222 -7.19083 1.735927 3e-06 -8.162928 -1e-06 -1.861904 -22.861473 -6.167941 1e-06 -3e-06 -3e-06 120.808426 2.692423 -1.363041 52.405945 -0.245406 0.714914 -55.489857 7.710503 -7.269269 -4.801137 1.439795 2.115862 -0.999997 0.0 -0.0 19.614573 -24.688763 -18.041933 50.100262 -2.070662 1.79389 -93.168198 14.317908 -8.75451 -23.060812 0.850581 1.362095 -1.000002 -0.0 -0.0 
0.0 0.0 0.0 0.0 -0.0 0.0 -18.967646 80.10424 133.765396 98.011024 -1.117444 85.067848 3.427523 1.090307 3.923221 -9.286214 1.946594 9.800849 17.876236 -7.466692 9.016812 24.401882 -9.918781 2.522582 -2.885502 -0.632053 -5.435069 -34.47998 4.565307 -15.707364 6e-06 0.0 0.0 -0.08999 0.070353 0.318911 0.16974 -0.003766 0.360574 0.087995 0.12506 0.276493 -100.23793 -47.446987 116.843025 -31.820898 -27.019197 -8.533932 99.465477 3.554873 -1.0089 -19.214886 51.148647 -44.182823 17.636627 -26.322733 52.411201 -19.466665 -14.395598 29.410393 0.0 -8.774822 -1e-06 15.934922 -16.425306 4.673193 -0.609776 -1.795655 -3.889327 -4.807089 -11.046811 -2.93785 5e-06 -20.976021 -0.0 -5.019972 -25.03356 -4.031883 6e-06 -0.0 0.0 -10.634537 -5.686971 -3.565588 10.573277 -17.922955 -3.113901 2e-06 -13.821209 2e-06 -0.501778 -31.181505 -4.027015 -10.645482 -58.320118 6.62725 -13.982716 -7.150196 -2.875044 13.772731 -8.401493 -3.218241 0.347735 -34.211555 0.771656 -0.963028 -17.73337 2.621019 -1e-06 1e-06 -0.0 -17.346424 -20.095219 -4.201778 21.757565 -1.638373 3.866425 -1e-06 -6.338825 -1e-06 -1.697589 -22.591745 -6.194006 -1e-06 -6e-06 -1e-06 -164.594299 -54.615273 -1.460826 17.445282 1.469846 1.992381 108.064934 4.806442 3.968813 11.379539 -24.192219 3.792876 22.182112 -20.375889 49.933323 -16.701811 -16.743528 28.476532 -2e-06 -12.690598 -1e-06 17.96312 -17.256111 2.469292 -0.105919 -1.513857 -4.27588 -5.039041 -5.612871 -2.953557 3e-06 -11.020523 -2e-06 -6.111297 -15.895332 -3.84047 -0.0 -0.0 1e-06 -10.28337 -5.680288 -4.341838 11.028293 -11.302402 -2.372634 -1.384268 -14.238581 -6.32012 -0.625438 -26.924189 -3.827603 -5.241677 -53.421856 -2.156703 -13.708523 -7.363477 -3.720938 18.141148 -14.052739 -3.242676 6e-06 -18.78727 -3e-06 -0.429713 -8.456043 2.555503 0.0 1e-06 0.0 -15.923536 -20.094482 -5.473583 30.41921 -7.190825 1.735925 3e-06 -8.162925 -0.0 -1.861902 -22.861467 -6.167942 -1e-06 -3e-06 -0.0 119.283394 1.530545 -1.246451 55.040073 -0.264532 0.722124 -58.064613 7.706641 -6.970459 -4.783469 1.338627 2.068527 -0.999999 -0.0 -0.0 20.921068 -22.428335 -18.045778 45.931091 -2.141792 1.909287 -93.659142 12.909007 -8.756516 -23.083775 0.887875 1.38565 -1.000002 0.0 -0.0 
